<svg width="250" height="42" viewBox="0 0 250 42" fill="none" xmlns="http://www.w3.org/2000/svg">
<path fill-rule="evenodd" clip-rule="evenodd" d="M0 0V42H129L128.795 39.9552L137.884 37.3859V23.5568L135.543 19.608L121.627 3.88231H158.373L144.457 19.608L142.116 23.5568V37.3859L151.205 39.9552L151 42H249.5V0H0ZM31.9048 6.90909V36H25.3139L14.8026 20.7159H14.6321V36H6.73438V6.90909H13.4389L23.7798 22.1364H24.0071V6.90909H31.9048ZM43.1974 36H34.6747L44.277 6.90909H55.0724L64.6747 36H56.152L54.471 30.4318H44.8784L43.1974 36ZM49.7884 14.9205L52.6872 24.5227H46.6623L49.5611 14.9205H49.7884ZM82.0256 16C81.9498 15.053 81.5947 14.3144 80.9602 13.7841C80.3352 13.2538 79.3835 12.9886 78.1051 12.9886C77.2907 12.9886 76.6231 13.0881 76.1023 13.2869C75.5909 13.4763 75.2121 13.7367 74.9659 14.0682C74.7197 14.3996 74.5919 14.7784 74.5824 15.2045C74.5634 15.5549 74.625 15.8722 74.767 16.1562C74.9186 16.4309 75.1553 16.6818 75.4773 16.9091C75.7992 17.1269 76.2112 17.3258 76.7131 17.5057C77.215 17.6856 77.8116 17.8466 78.5028 17.9886L80.8892 18.5C82.4991 18.8409 83.8769 19.2907 85.0227 19.8494C86.1686 20.4081 87.1061 21.0663 87.8352 21.8239C88.5644 22.572 89.0994 23.4148 89.4403 24.3523C89.7907 25.2898 89.9706 26.3125 89.9801 27.4205C89.9706 29.3333 89.4924 30.9527 88.5455 32.2784C87.5985 33.6042 86.2443 34.6127 84.483 35.304C82.7311 35.9953 80.6241 36.3409 78.1619 36.3409C75.6335 36.3409 73.4271 35.9669 71.5426 35.2188C69.6676 34.4706 68.2093 33.3201 67.1676 31.767C66.1354 30.2045 65.6146 28.2064 65.6051 25.7727H73.1051C73.1525 26.6629 73.375 27.411 73.7727 28.017C74.1705 28.6231 74.7292 29.0824 75.4489 29.3949C76.178 29.7074 77.0445 29.8636 78.0483 29.8636C78.8911 29.8636 79.5966 29.7595 80.1648 29.5511C80.733 29.3428 81.1638 29.054 81.4574 28.6847C81.7509 28.3153 81.9025 27.8939 81.9119 27.4205C81.9025 26.9754 81.7557 26.5871 81.4716 26.2557C81.197 25.9148 80.7424 25.6117 80.108 25.3466C79.4735 25.072 78.6165 24.8163 77.5369 24.5795L74.6392 23.9545C72.0634 23.3958 70.0322 22.4631 68.5455 21.1562C67.0682 19.84 66.3343 18.0455 66.3438 15.7727C66.3343 13.9261 66.8267 12.3116 67.821 10.929C68.8248 9.53693 70.2121 8.45265 71.983 7.67614C73.7633 6.89962 75.804 6.51136 78.1051 6.51136C80.4536 6.51136 82.4848 6.90436 84.1989 7.69034C85.9129 8.47633 87.2339 9.58428 88.1619 11.0142C89.0994 12.4347 89.5729 14.0966 89.5824 16H82.0256ZM93.098 36V31.625L106.848 13.2727H93.1548V6.90909H116.905V11.2841L103.155 29.6364H116.848V36H93.098ZM160.602 36V6.90909H173.215C175.431 6.90909 177.292 7.20739 178.798 7.80398C180.313 8.40057 181.454 9.24337 182.221 10.3324C182.997 11.4214 183.386 12.7045 183.386 14.1818C183.386 15.2519 183.149 16.2273 182.675 17.108C182.211 17.9886 181.558 18.7273 180.715 19.3239C179.872 19.911 178.888 20.3182 177.761 20.5455V20.8295C179.011 20.8769 180.147 21.1941 181.17 21.7812C182.192 22.3589 183.007 23.1591 183.613 24.1818C184.219 25.1951 184.522 26.3883 184.522 27.7614C184.522 29.3523 184.105 30.768 183.272 32.0085C182.448 33.2491 181.274 34.2244 179.749 34.9347C178.225 35.6449 176.406 36 174.295 36H160.602ZM168.499 29.6932H172.192C173.518 29.6932 174.513 29.447 175.175 28.9545C175.838 28.4527 176.17 27.714 176.17 26.7386C176.17 26.0568 176.013 25.4792 175.701 25.0057C175.388 24.5322 174.943 24.1723 174.366 23.9261C173.798 23.6799 173.111 23.5568 172.306 23.5568H168.499V29.6932ZM168.499 18.6705H171.738C172.429 18.6705 173.04 18.5616 173.57 18.3438C174.101 18.1259 174.513 17.8134 174.806 17.4062C175.109 16.9896 175.261 16.483 175.261 15.8864C175.261 14.9867 174.939 14.3002 174.295 13.8267C173.651 13.3438 172.836 13.1023 171.852 13.1023H168.499V18.6705ZM194.877 36H186.354L195.957 6.90909H206.752L216.354 36H207.832L206.151 30.4318H196.558L194.877 36ZM201.468 14.9205L204.367 24.5227H198.342L201.241 14.9205H201.468ZM219.156 36V6.90909H231.713C233.872 6.90909 235.761 7.30208 237.381 8.08807C239 8.87405 240.259 10.0057 241.159 11.483C242.059 12.9602 242.509 14.7311 242.509 16.7955C242.509 18.8788 242.045 20.6354 241.116 22.0653C240.259 23.4 239.076 24.4295 237.567 25.1536L243.474 36H234.895L229.787 26.3977H227.054V36H219.156ZM229.838 20.2614H227.054V13.2159H229.838C230.766 13.2159 231.557 13.3437 232.21 13.5994C232.873 13.8456 233.38 14.2339 233.73 14.7642C234.09 15.285 234.27 15.9621 234.27 16.7955C234.27 17.6193 234.09 18.2869 233.73 18.7983C233.38 19.3097 232.873 19.6837 232.21 19.9205C231.557 20.1477 230.766 20.2614 229.838 20.2614Z" fill="url(#paint0_linear_207_40)"/>
<defs>
<linearGradient id="paint0_linear_207_40" x1="-2" y1="23.5" x2="245.5" y2="23.5" gradientUnits="userSpaceOnUse">
<stop stop-color="#F00EE7"/>
<stop offset="1" stop-color="#0EEFEF"/>
</linearGradient>
</defs>
</svg>
